<svg width="16" height="16" viewBox="0 0 16 16" fill="currentColor" xmlns="http://www.w3.org/2000/svg">
<path fill-rule="evenodd" clip-rule="evenodd" d="M9.9356 0.283001C8.1544 2.03991 6.09659 3.3805 3.62305 4.04328L5.30134 10.3068C7.77488 9.64398 10.2273 9.77606 12.6483 10.407C13.2821 10.5722 13.8897 10.0003 13.7202 9.36758L11.3836 0.647201C11.2141 0.0145449 10.4019 -0.176944 9.9356 0.283001ZM13.3815 2.63339C13.9144 2.4906 14.4822 2.56535 14.96 2.84119C15.4378 3.11704 15.7864 3.57138 15.9292 4.10426C16.072 4.63715 15.9972 5.20494 15.7214 5.68271C15.4455 6.16049 14.9912 6.50911 14.4583 6.6519L13.3815 2.63339ZM0.427472 5.92215C0.850576 5.18931 1.54747 4.65456 2.36485 4.43555L4.01644 10.5994C3.19906 10.8184 2.32816 10.7038 1.59532 10.2807C0.862487 9.85753 0.327741 9.16064 0.108726 8.34326C-0.110289 7.52589 0.00436785 6.65499 0.427472 5.92215ZM5.60742 11.4157L7.50204 15.4433C7.69092 15.8445 8.13977 16.0528 8.56791 15.9381C9.11916 15.7904 9.40245 15.1798 9.15966 14.6635L7.45892 11.0488C6.83651 11.1302 6.21814 11.2521 5.60742 11.4157Z"></path>
</svg>