<svg width="16" height="17" viewBox="0 0 16 17" fill="none" xmlns="http://www.w3.org/2000/svg">
<path d="M11.0166 0.876709H4.983C2.3622 0.876709 0.799805 2.43911 0.799805 5.05991V11.0935C0.799805 13.7143 2.3622 15.2767 4.983 15.2767H11.0166C13.6374 15.2767 15.1998 13.7143 15.1998 11.0935V5.05991C15.1998 2.43911 13.6374 0.876709 11.0166 0.876709ZM6.5382 10.1647L4.9182 11.7847C4.8102 11.8927 4.6734 11.9431 4.5366 11.9431C4.3998 11.9431 4.2558 11.8927 4.155 11.7847L3.615 11.2447C3.399 11.0359 3.399 10.6903 3.615 10.4815C3.8238 10.2727 4.1622 10.2727 4.3782 10.4815L4.5366 10.6399L5.775 9.40151C5.9838 9.19271 6.3222 9.19271 6.5382 9.40151C6.747 9.61031 6.747 9.95591 6.5382 10.1647ZM6.5382 5.12471L4.9182 6.74471C4.8102 6.85271 4.6734 6.90311 4.5366 6.90311C4.3998 6.90311 4.2558 6.85271 4.155 6.74471L3.615 6.20471C3.399 5.99591 3.399 5.65031 3.615 5.44151C3.8238 5.23271 4.1622 5.23271 4.3782 5.44151L4.5366 5.59991L5.775 4.36151C5.9838 4.15271 6.3222 4.15271 6.5382 4.36151C6.747 4.57031 6.747 4.91591 6.5382 5.12471ZM12.003 11.4031H8.223C7.9278 11.4031 7.683 11.1583 7.683 10.8631C7.683 10.5679 7.9278 10.3231 8.223 10.3231H12.003C12.3054 10.3231 12.543 10.5679 12.543 10.8631C12.543 11.1583 12.3054 11.4031 12.003 11.4031ZM12.003 6.36311H8.223C7.9278 6.36311 7.683 6.11831 7.683 5.82311C7.683 5.52791 7.9278 5.28311 8.223 5.28311H12.003C12.3054 5.28311 12.543 5.52791 12.543 5.82311C12.543 6.11831 12.3054 6.36311 12.003 6.36311Z" fill="#737490"></path>
</svg>