<svg width="21" height="21" viewBox="0 0 21 21" fill="none" xmlns="http://www.w3.org/2000/svg">
<g clip-path="url(#clip0_44417_206299)">
<path fill-rule="evenodd" clip-rule="evenodd" d="M10.8171 2.03613C11.1546 2.03614 11.4558 2.24794 11.57 2.56554L14.3481 10.2949L18.9606 4.49895C19.1828 4.21966 19.5632 4.1214 19.8929 4.2581C20.2227 4.39481 20.4219 4.7334 20.3814 5.08802L18.742 19.4199C18.6958 19.8239 18.3538 20.129 17.9472 20.129H3.68698C3.28032 20.129 2.93837 19.8239 2.89216 19.4199L1.25277 5.08802C1.21221 4.7334 1.41148 4.39481 1.7412 4.2581C2.07091 4.1214 2.45131 4.21966 2.67356 4.49895L7.28603 10.295L10.0643 2.56553C10.1784 2.24793 10.4796 2.03613 10.8171 2.03613ZM10.8171 5.20128L8.30637 12.1864C8.20824 12.4594 7.97002 12.6579 7.68379 12.7052C7.39756 12.7524 7.10819 12.641 6.92755 12.414L3.15961 7.67921L4.40068 18.529H17.2334L18.4745 7.67921L14.7066 12.414C14.5259 12.641 14.2366 12.7524 13.9503 12.7052C13.6641 12.6579 13.4259 12.4594 13.3278 12.1864L10.8171 5.20128Z" fill="white"></path>
</g>
</svg>