<svg width="16" height="16" viewBox="0 0 16 16" fill="currentColor" xmlns="http://www.w3.org/2000/svg">
<path fill-rule="evenodd" clip-rule="evenodd" d="M3.95753 8.51212C4.6309 10.0905 6.19607 11.1819 8.00006 11.1821C9.80406 11.1819 11.3692 10.0905 12.0426 8.51211C13.4086 8.46529 14.4051 7.84482 15.0513 7.04548C15.7023 6.24006 16 5.25334 16 4.48671V3.29173C16 2.33866 15.2274 1.56606 14.2743 1.56606H12.8117C12.8194 1.47473 12.8272 1.38556 12.835 1.29884L12.8934 0.548918C12.9158 0.262388 12.6893 0.0175781 12.4019 0.0175781H3.59814C3.31079 0.0175781 3.08429 0.262388 3.10667 0.548918L3.16505 1.29884C3.17291 1.38556 3.18071 1.47473 3.18844 1.56606H1.72567C0.772609 1.56606 0 2.33866 0 3.29173V4.48671C0 5.25334 0.297666 6.24006 0.948756 7.04548C1.59493 7.84484 2.59143 8.46533 3.95753 8.51212ZM3.63182 6.99796C3.51043 6.00969 3.41721 4.69086 3.32912 3.44451C3.31965 3.31041 3.31023 3.17712 3.30084 3.0452H1.72567C1.58952 3.0452 1.47915 3.15558 1.47915 3.29173V4.48671C1.47915 4.91875 1.66315 5.57637 2.09906 6.11561C2.43917 6.53635 2.93136 6.88575 3.63182 6.99796ZM12.6992 3.0452C12.6899 3.17711 12.6805 3.31037 12.671 3.44446C12.5829 4.69082 12.4897 6.00966 12.3683 6.99794C13.0687 6.8857 13.5608 6.53633 13.9009 6.11561C14.3368 5.57637 14.5209 4.91875 14.5209 4.48671V3.29173C14.5209 3.15558 14.4105 3.0452 14.2743 3.0452H12.6992ZM7.99958 12.4753C7.41498 12.4753 6.85542 12.3607 6.34318 12.1521C6.06516 12.0388 5.73352 12.1541 5.62388 12.4336L4.49557 15.3092C4.36867 15.6327 4.60711 15.9823 4.95455 15.9823H11.0452C11.3926 15.9823 11.6311 15.6327 11.5042 15.3092L10.3758 12.4334C10.2661 12.1539 9.93442 12.0386 9.65644 12.1519C9.14404 12.3607 8.58435 12.4753 7.99958 12.4753Z"></path>
</svg>