<svg width="16" height="14" viewBox="0 0 16 14" fill="none" xmlns="http://www.w3.org/2000/svg">
<path d="M7.49312 1.7188C7.49312 1.9777 7.29132 2.1876 7.04242 2.1876H1.60361C1.35464 2.1876 1.15283 1.9777 1.15283 1.7188V0.7812C1.15283 0.5224 1.35464 0.3125 1.60361 0.3125H7.04242C7.29132 0.3125 7.49312 0.5224 7.49312 0.7812V1.7188Z" fill="currentColor"></path>
<path d="M6.53852 5.0626C6.78742 5.0626 6.98922 4.8527 6.98922 4.5938V3.6562C6.98922 3.3974 6.78742 3.1875 6.53852 3.1875H1.09971C0.850736 3.1875 0.648926 3.3974 0.648926 3.6562V4.5938C0.648926 4.8527 0.850736 5.0626 1.09971 5.0626H6.53852Z" fill="currentColor"></path>
<path d="M15.2876 7.93761C15.5365 7.93761 15.7383 7.72771 15.7383 7.4688V6.5312C15.7383 6.2724 15.5365 6.0625 15.2876 6.0625H9.84869C9.59979 6.0625 9.39795 6.2724 9.39795 6.5312V7.4688C9.39795 7.72771 9.59979 7.93761 9.84869 7.93761H15.2876Z" fill="currentColor"></path>
<path d="M14.6635 10.8087C14.9124 10.8087 15.1142 10.5988 15.1142 10.3399V9.40229C15.1142 9.14349 14.9124 8.93359 14.6635 8.93359H9.22471C8.97574 8.93359 8.77393 9.14349 8.77393 9.40229V10.3399C8.77393 10.5988 8.97574 10.8087 9.22471 10.8087H14.6635Z" fill="currentColor"></path>
<path d="M0.262207 12.2812V13.2187C0.262207 13.4776 0.464017 13.6875 0.712988 13.6875H6.1518C6.4007 13.6875 6.6025 13.4776 6.6025 13.2187V12.2812C6.6025 12.0223 6.4007 11.8125 6.1518 11.8125H0.712988C0.464017 11.8125 0.262207 12.0223 0.262207 12.2812Z" fill="currentColor"></path>
<path d="M9.0249 12.2812V13.2187C9.0249 13.4776 9.22671 13.6875 9.47568 13.6875H14.9145C15.1634 13.6875 15.3652 13.4776 15.3652 13.2187V12.2812C15.3652 12.0223 15.1634 11.8125 14.9145 11.8125H9.47568C9.22671 11.8125 9.0249 12.0223 9.0249 12.2812Z" fill="currentColor"></path>
<path d="M7.49263 10.3399C7.49263 10.5988 7.29083 10.8087 7.04193 10.8087H1.60312C1.35415 10.8087 1.15234 10.5988 1.15234 10.3399V9.40229C1.15234 9.14349 1.35415 8.93359 1.60312 8.93359H7.04193C7.29083 8.93359 7.49263 9.14349 7.49263 9.40229V10.3399Z" fill="currentColor"></path>
<path d="M6.6025 7.4688C6.6025 7.72771 6.4007 7.93761 6.1518 7.93761H0.712988C0.464017 7.93761 0.262207 7.72771 0.262207 7.4688V6.5312C0.262207 6.2724 0.464017 6.0625 0.712988 6.0625H6.1518C6.4007 6.0625 6.6025 6.2724 6.6025 6.5312V7.4688Z" fill="currentColor"></path>
</svg>