<svg width="16" height="16" viewBox="0 0 16 16" fill="currentColor" xmlns="http://www.w3.org/2000/svg">
<path d="M1.61228 3.80414L11.7945 1.07583C12.5147 0.882841 13.4435 0.869641 13.8657 1.58728C14.1284 2.03367 14.1177 2.62013 13.7611 3.07564L9.27836 8.80185C9.08737 9.04583 8.82486 9.21218 8.53834 9.2882C8.25221 9.36563 7.94169 9.35281 7.65429 9.23702L0.909011 6.51935C0.372436 6.30316 0.0699992 5.80061 0.0742632 5.2827C0.0811183 4.45007 0.89201 3.99713 1.61228 3.80414Z"></path>
<path d="M7.01286 10.7248C7.64379 10.979 8.32535 11.0076 8.95373 10.8384C9.58249 10.6707 10.1584 10.3052 10.5777 9.76955C12.1232 7.79538 14.6365 4.46382 14.6365 4.46382L15.8142 8.85925C16.2383 10.442 15.437 11.6273 13.8542 12.0514L5.31626 14.3391C3.73346 14.7632 2.44689 14.1375 2.02278 12.5546L0.845025 8.15922C0.845025 8.15922 4.68736 9.78781 7.01286 10.7248Z"></path>
</svg>