<svg width="16" height="16" viewBox="0 0 16 16" fill="currentColor" xmlns="http://www.w3.org/2000/svg">
<path fill-rule="evenodd" clip-rule="evenodd" d="M4.25001 0.5C2.17893 0.5 0.5 2.17893 0.5 4.25V11.75C0.5 13.8211 2.17893 15.5 4.25001 15.5H11.75C13.8211 15.5 15.5 13.8211 15.5 11.75V4.25C15.5 2.17893 13.8211 0.5 11.75 0.5H4.25001ZM8.00723 2.98566C7.36274 2.98566 6.85835 3.51268 6.85835 4.11955C6.85835 4.72642 7.36274 5.26944 8.00723 5.26944C8.63774 5.26944 9.14213 4.72642 9.14213 4.11955C9.14213 3.51274 8.63769 2.98566 8.00723 2.98566ZM8.00717 6.72238C7.37547 6.72238 6.85907 7.24836 6.85907 7.82034L6.85886 9.24199C6.85871 10.0742 6.85854 11.0469 6.85854 11.8651C6.85854 12.4718 7.36284 13.0148 8.00722 13.0148C8.63762 13.0148 9.14193 12.4718 9.14193 11.8651C9.14193 11.0291 9.14157 9.8421 9.14131 8.95357L9.14102 7.81288C9.14102 7.21547 8.62251 6.72238 8.00717 6.72238Z"></path>
</svg>