<svg xmlns="http://www.w3.org/2000/svg" width="17" height="17" fill="currentColor" viewBox="0 0 17 17"><path fill-rule="evenodd" d="M3.925 10.903a5.63 5.63 0 1 1 8.857 0c-1.373.536-2.867.83-4.429.83-1.562 0-3.056-.294-4.428-.83Zm4.734-6.34c.215.293.427.79.547 1.099.065.165.22.28.397.293.344.026.91.085 1.251.204.31.109.346.278.156.541-.212.295-.626.663-.883.879a.463.463 0 0 0-.152.464c.08.327.198.867.195 1.232-.003.341-.15.446-.477.344-.347-.108-.814-.387-1.097-.566a.464.464 0 0 0-.494-.003c-.266.167-.695.42-1.03.543-.385.141-.563.025-.558-.39.005-.361.12-.85.202-1.156a.466.466 0 0 0-.146-.474c-.252-.215-.65-.576-.864-.87-.196-.271-.178-.464.156-.58.34-.117.888-.16 1.227-.176a.466.466 0 0 0 .41-.291c.124-.31.338-.802.55-1.092.208-.284.4-.284.61 0Z" clip-rule="evenodd"></path><path d="M3.202 13.956c0-.714.586-2.016.586-2.016 1.397.697 2.94.866 4.565.866 1.623 0 3.167-.17 4.564-.866 0 0 .585 1.302.585 2.016 0 1.797-4.31 1.919-5.15 1.919-.835 0-5.15-.117-5.15-1.92Z"></path></svg>