<svg width="20" height="20" viewBox="0 0 20 20" fill="none" xmlns="http://www.w3.org/2000/svg">
<g clip-path="url(#svg-2c3b97)">
<path fill-rule="evenodd" clip-rule="evenodd" d="M5.00474 2.51304C6.48597 1.5247 8.22711 0.997972 10.0078 0.999515C12.391 1.00501 14.675 1.95417 16.3602 3.63934C18.0453 5.32451 18.9945 7.60852 19 9.99171C19.0015 11.7724 18.4748 13.5135 17.4865 14.9948C16.4981 16.476 15.0926 17.6308 13.4478 18.3129C11.8029 18.9951 9.99266 19.174 8.2461 18.827C6.49955 18.4799 4.89518 17.6226 3.63604 16.3635C2.3769 15.1043 1.51957 13.5 1.17256 11.7534C0.825538 10.0069 1.00443 8.19661 1.68658 6.55176C2.36874 4.9069 3.5235 3.50138 5.00474 2.51304ZM10.398 4.16772C10.7552 4.19124 11.1095 4.24695 11.4566 4.3342L12.0419 2.52899C11.5051 2.38243 10.9538 2.29521 10.398 2.26888V4.16772ZM6.90462 5.05732C7.20618 4.86598 7.5249 4.70314 7.85665 4.5709L7.26878 2.7657C6.74887 2.9623 6.25246 3.21618 5.78873 3.52264L6.90462 5.05732ZM4.58699 7.83015C4.71923 7.4984 4.88208 7.17968 5.07341 6.87813L3.53873 5.75963C3.23192 6.22448 2.9772 6.7217 2.77919 7.24229L4.58699 7.83015ZM4.33988 11.4223C4.25099 11.0755 4.19525 10.721 4.17341 10.3637H2.27457C2.30089 10.9195 2.38812 11.4708 2.53468 12.0076L4.33988 11.4223ZM5.77872 7.16623C5.22032 7.99996 4.92149 8.98046 4.91994 9.98391L4.93035 9.99171C4.93241 11.3377 5.46802 12.628 6.41978 13.5797C7.37154 14.5315 8.66181 15.0671 10.0078 15.0692C11.0112 15.0671 11.9916 14.7678 12.825 14.2089C13.6585 13.6501 14.3076 12.8569 14.6906 11.9294C15.0735 11.0019 15.173 9.98168 14.9766 8.99765C14.7801 8.01362 14.2965 7.10986 13.5868 6.4005C12.877 5.69113 11.973 5.20797 10.9889 5.01202C10.0048 4.81606 8.98465 4.91611 8.05734 5.29952C7.13003 5.68293 6.33711 6.33251 5.77872 7.16623ZM9.63583 15.8261C9.27279 15.798 8.91315 15.7361 8.56156 15.6414L7.9893 17.4648C8.527 17.6114 9.07914 17.6986 9.63583 17.7249V15.8261ZM13.1136 14.9183C12.8114 15.1086 12.4928 15.2714 12.1616 15.4047L12.7572 17.2177C13.2747 17.018 13.7685 16.7615 14.2295 16.453L13.1136 14.9183ZM15.4208 12.1455C15.2866 12.4768 15.1229 12.7954 14.9318 13.0975L16.4691 14.2134C16.7735 13.7476 17.0273 13.2505 17.226 12.7307L15.4208 12.1455ZM15.6653 8.54287C15.7492 8.89129 15.8023 9.24641 15.824 9.60414L17.7306 9.60154C17.703 9.04583 17.6158 8.49469 17.4705 7.95761L15.6653 8.54287ZM14.4844 6.25385L16.0217 5.13795L16.0295 5.14576C15.6774 4.71016 15.2797 4.3134 14.8433 3.96223L13.7301 5.49691C14.0038 5.72599 14.2563 5.97933 14.4844 6.25385ZM5.52081 13.7218L3.98613 14.8377C4.33531 15.2701 4.72943 15.6642 5.16185 16.0134L6.27774 14.4787C6.00319 14.2497 5.74985 13.9963 5.52081 13.7218ZM8.45518 10.7404C8.31328 10.8326 8.14804 10.8824 7.97885 10.8839C7.82043 10.8835 7.665 10.8407 7.52872 10.76C7.39243 10.6792 7.28026 10.5634 7.20386 10.4246C7.12747 10.2859 7.08964 10.1291 7.0943 9.9708C7.09897 9.81245 7.14596 9.65824 7.23039 9.52419C7.31482 9.39014 7.43361 9.28115 7.57441 9.20855C7.71521 9.13595 7.87289 9.10238 8.03106 9.11134C8.18923 9.12029 8.34211 9.17145 8.47382 9.25948C8.60552 9.34752 8.71125 9.46922 8.78001 9.61194H9.62798V8.76396C9.44596 8.67772 9.2987 8.53209 9.21044 8.35104C9.12218 8.16998 9.09818 7.96427 9.14238 7.76775C9.18657 7.57124 9.29634 7.39562 9.45362 7.26978C9.6109 7.14394 9.80633 7.07539 10.0078 7.07539C10.2092 7.07539 10.4046 7.14394 10.5619 7.26978C10.7192 7.39562 10.8289 7.57124 10.8731 7.76775C10.9173 7.96427 10.8933 8.16998 10.8051 8.35104C10.7168 8.53209 10.5696 8.67772 10.3875 8.76396V9.60414H11.2433C11.3295 9.42211 11.4752 9.27485 11.6562 9.18659C11.8373 9.09833 12.043 9.07433 12.2395 9.11853C12.436 9.16272 12.6116 9.27249 12.7375 9.42977C12.8633 9.58705 12.9319 9.78248 12.9319 9.9839C12.9319 10.1853 12.8633 10.3808 12.7375 10.538C12.6116 10.6953 12.436 10.8051 12.2395 10.8493C12.043 10.8935 11.8373 10.8695 11.6562 10.7812C11.4752 10.693 11.3295 10.5457 11.2433 10.3637H10.3953V11.2116C10.5774 11.2979 10.7246 11.4435 10.8129 11.6246C10.9011 11.8056 10.9251 12.0113 10.8809 12.2079C10.8367 12.4044 10.727 12.58 10.5697 12.7058C10.4124 12.8317 10.217 12.9002 10.0156 12.9002C9.81413 12.9002 9.61871 12.8317 9.46142 12.7058C9.30414 12.58 9.19438 12.4044 9.15018 12.2079C9.10598 12.0113 9.12999 11.8056 9.21824 11.6246C9.3065 11.4435 9.45376 11.2979 9.63579 11.2116V10.3637H8.78001C8.70976 10.5176 8.59708 10.6483 8.45518 10.7404Z" fill="#F0FAFF"></path>
</g>
<defs>
<clipPath id="svg-2c3b97">
<rect width="18" height="18" fill="white" transform="translate(1 0.999512)"></rect>
</clipPath>
</defs>
</svg>