<svg xmlns="http://www.w3.org/2000/svg" width="17" height="17" fill="currentColor" viewBox="0 0 17 17"><g><path fill-rule="evenodd" d="M8.231 16.127H8.341c.056 0 .112-.001.167-.004 1.435-.05 2.872-.53 3.983-1.471 1.196-1.015 1.974-2.534 1.974-4.508 0-3.904-5.713-5.226-4.327-9.859-4.9 1.415-8.135 6.73-8.135 9.859 0 1.954.78 3.467 1.974 4.483 1.18 1.003 2.73 1.494 4.254 1.5Zm-1.311-1.72c.757.644 2.086.66 2.849.013.328-.278.58-.71.58-1.392 0-1.205-1.84-2.255-2.032-4.121-.662.934-1.98 2.875-1.98 4.12 0 .666.25 1.098.583 1.38Z" clip-rule="evenodd"></path></g><defs></defs></svg>