<svg xmlns="http://www.w3.org/2000/svg" width="17" height="17" fill="currentColor" viewBox="0 0 17 17"><g><path d="M11.055.469a1.165 1.165 0 0 0-1.893.36l-1.115 2.57L6.933.829A1.165 1.165 0 0 0 5.04.469L3.364 2.145a1.165 1.165 0 0 0 .36 1.892l1.328.576H1.303a.583.583 0 0 0-.582.583v2.485c0 .322.26.582.582.582h13.489c.322 0 .582-.26.582-.582V5.196a.583.583 0 0 0-.582-.583h-3.749l1.328-.576a1.165 1.165 0 0 0 .36-1.892L11.055.469ZM2.524 9.909a.583.583 0 0 0-.582.582v5.053c0 .322.26.583.582.583h11.047c.322 0 .582-.26.582-.583v-5.053a.583.583 0 0 0-.582-.582H2.524Z"></path></g><defs></defs></svg>