<svg width="21" height="21" viewBox="0 0 21 21" fill="currentColor" xmlns="http://www.w3.org/2000/svg">
<path fill-rule="evenodd" clip-rule="evenodd" d="M0.865723 9.82878C0.865723 4.84869 4.90289 0.811523 9.88298 0.811523C14.8631 0.811523 18.9002 4.84869 18.9002 9.82878C18.9002 11.6666 18.3504 13.3761 17.4063 14.8016L20.1755 17.5708C20.8798 18.2751 20.8798 19.417 20.1755 20.1213C19.4712 20.8256 18.3293 20.8256 17.625 20.1213L14.8558 17.3521C13.4303 18.2962 11.7208 18.846 9.88298 18.846C4.90289 18.846 0.865723 14.8089 0.865723 9.82878ZM13.8165 13.5435C13.7774 13.5765 13.7393 13.6114 13.7025 13.6483C13.6656 13.6851 13.6307 13.7232 13.5977 13.7623C12.6286 14.6778 11.3214 15.2391 9.88298 15.2391C6.89492 15.2391 4.47263 12.8168 4.47263 9.82878C4.47263 6.84072 6.89492 4.41843 9.88298 4.41843C12.871 4.41843 15.2933 6.84072 15.2933 9.82878C15.2933 11.2672 14.732 12.5744 13.8165 13.5435Z"></path>
</svg>