<svg xmlns="http://www.w3.org/2000/svg" fill="currentColor" viewBox="0.83 0.5 14.33 13">
<path fill-rule="evenodd" clip-rule="evenodd" d="M0.879456 0.789562C0.961385 0.612979 1.13835 0.5 1.33301 0.5H14.6663C14.861 0.5 15.038 0.612979 15.1199 0.789562C15.2018 0.966144 15.1738 1.17422 15.0481 1.32286L9.83301 7.48974V13C9.83301 13.1733 9.74329 13.3342 9.59588 13.4253C9.44847 13.5164 9.2644 13.5247 9.10941 13.4472L6.44274 12.1139C6.27335 12.0292 6.16635 11.8561 6.16635 11.6667V7.48974L0.951229 1.32286C0.825531 1.17422 0.797526 0.966144 0.879456 0.789562ZM2.41067 1.5L7.04813 6.9838C7.12446 7.07407 7.16635 7.18846 7.16635 7.30667V11.3577L8.83301 12.191V7.30667C8.83301 7.18846 8.8749 7.07407 8.95123 6.9838L13.5887 1.5H2.41067Z"></path>
</svg>