<svg xmlns="http://www.w3.org/2000/svg" fill="currentColor" width="20" height="20" viewBox="223.26 120.22 553.48 759.56">
  <defs>
    <style>
      .cls-1 {
        fill: none !important;
      }
    </style>
  </defs>
<path class="cls-1" d="M707.88,620.56c-.01,1.18-.03,2.37-.07,3.56-.05,1.78-.13,3.57-.24,5.37-.11,1.79-.26,3.59-.43,5.39-.34,3.6-.8,7.2-1.4,10.78-.19,1.19-.4,2.39-.63,3.57-2.03,10.71-5.2,21.2-9.67,30.92-.67,1.46-1.37,2.9-2.1,4.33-.73,1.42-1.49,2.83-2.28,4.22-1.18,2.07-2.43,4.1-3.75,6.08-.88,1.31-1.79,2.61-2.73,3.88-.94,1.26-1.92,2.5-2.92,3.72-2.51,3.03-5.22,5.9-8.13,8.56-5.07,4.63-10.75,8.65-17.09,11.91-2.09,1.06-4.29,1.98-6.55,2.71-.76.24-1.52.46-2.29.67-.38.1-.77.19-1.16.29-.77.18-1.55.34-2.33.48-.78.14-1.56.25-2.34.35-.78.09-1.57.16-2.35.21-.39.02-.78.04-1.17.05-1.95.06-3.89-.03-5.78-.28-.37-.06-.75-.11-1.12-.18-.75-.13-1.49-.28-2.22-.46s-1.45-.39-2.16-.63c-.7-.24-1.4-.5-2.08-.8-.34-.15-.68-.3-1.01-.46-.67-.33-1.32-.68-1.95-1.06-.32-.2-.63-.39-.94-.6-.71-.48-1.39-.99-2.03-1.53-1.27-1.07-2.41-2.26-3.4-3.54-.25-.32-.49-.64-.72-.98-1.62-2.31-2.82-4.9-3.64-7.64-.24-.78-.44-1.58-.61-2.38-.52-2.42-.77-4.93-.77-7.47,0-.84.02-1.69.08-2.54.05-.85.13-1.69.23-2.54l.18-1.26c.13-.84.29-1.68.47-2.51.27-1.25.6-2.48.97-3.69,1.47-4.7,3.55-9.19,5.92-13.59,1.09-2.03,2.25-4.04,3.43-6.04.2-.33.4-.67.6-1,.4-.67.8-1.33,1.2-1.99.4-.67.81-1.33,1.21-2,.41-.66.81-1.32,1.22-1.99.4-.66.8-1.33,1.21-1.99.4-.67.8-1.33,1.19-2,.4-.66.79-1.33,1.18-2,.36-.62.72-1.24,1.07-1.86.35-.62.7-1.24,1.04-1.86,1.11-2.04,2.17-4.1,3.17-6.19.33-.69.66-1.39.97-2.09.52-1.12,1.01-2.25,1.49-3.38.48-1.13.94-2.26,1.38-3.4.45-1.15.87-2.29,1.28-3.44.62-1.73,1.2-3.46,1.73-5.21.18-.58.36-1.16.53-1.75.34-1.16.67-2.34.97-3.51.62-2.35,1.16-4.71,1.63-7.08.47-2.37.88-4.74,1.21-7.13.08-.59.16-1.19.23-1.79.15-1.19.28-2.38.39-3.58.05-.6.1-1.19.15-1.79.09-1.2.17-2.39.22-3.59.03-.6.05-1.2.07-1.79.05-1.49.07-2.98.08-4.48.01-.59.01-1.19.01-1.79v-.9c0-.59,0-1.19,0-1.79.01-.89.02-1.79.03-2.69.01-.53.03-1.06.04-1.59.01-.36.02-.73.04-1.09.03-.9.08-1.79.14-2.68.08-1.14.18-2.28.31-3.41.05-.39.1-.79.16-1.18.11-.8.24-1.6.39-2.4,0-.06.02-.12.04-.19.16-.83.34-1.65.55-2.48.15-.6.32-1.2.5-1.8.09-.29.18-.58.28-.87.36-1.08.79-2.16,1.28-3.22.5-1.06,1.05-2.11,1.66-3.12.41-.68.84-1.34,1.3-1.98.44-.62.91-1.23,1.39-1.81.53-.64,1.08-1.25,1.65-1.84.44-.45.9-.89,1.37-1.31.95-.84,1.94-1.61,3-2.3.65-.43,1.33-.82,2.03-1.18.79-.41,1.59-.77,2.42-1.09.56-.21,1.12-.39,1.7-.56.86-.24,1.74-.43,2.64-.56,1.18-.17,2.35-.23,3.51-.2.87.02,1.73.09,2.59.22.28.04.57.09.85.14.26.05.52.1.78.16.46.1.91.21,1.36.34.22.07.44.13.66.2.45.14.89.3,1.32.46.22.08.44.17.65.26.43.17.86.36,1.28.56.41.2.83.41,1.23.63.82.44,1.61.92,2.36,1.44.38.26.76.53,1.12.8.55.42,1.07.85,1.58,1.3.34.3.67.61.99.92s.63.63.93.96c.31.32.6.65.89.99.74.86,1.43,1.76,2.08,2.69.22.32.43.64.65.96.5.76.97,1.54,1.42,2.33.59,1.05,1.15,2.12,1.67,3.21.52,1.09,1.01,2.19,1.47,3.31.5,1.22.97,2.45,1.42,3.68,1.67,4.57,3.09,9.51,4.23,14.72,1.03,4.69,1.83,9.59,2.4,14.66.13,1.12.24,2.25.34,3.39.1,1.14.19,2.29.27,3.44.2,2.88.32,5.79.36,8.73.01,1.18.02,2.36.01,3.55Z"></path>
<path d="M669.53,404.61c-25.17-18.73-53.78-33.38-84.8-42.94v-83.72c0-8.81-7.21-16.01-16.02-16.01h-70.9l-.16-.72c-3.52-15.98-3.45-27.77.25-38.25.69-1.92,1.5-3.8,2.45-5.61.6,1.32,1.23,2.61,1.9,3.87,4.47,8.4,10.14,14.54,16.85,18.24,9.87,5.46,21.76,5.16,30.3-.76,5.33-3.7,9.23-9.38,11.29-16.43,3.24-11.09.61-23.64-7.04-33.57-7.64-9.93-19.11-15.69-30.66-15.39-.41.02-.83.04-1.25.05.29-.84.6-1.67.93-2.47,1.51-3.67,3.57-7.14,6.05-10.31,2.47-3.16,5.36-6.01,8.56-8.45,4.18-3.19,8.87-5.69,13.83-7.22,6.65-2.06,10.39-9.14,8.34-15.79-1-3.23-3.2-5.87-6.18-7.44-2.99-1.58-6.41-1.89-9.63-.9-19.84,6.15-36.41,21.27-44.32,40.48-3.14,7.61-4.88,15.7-5.2,24.06-.68.58-1.35,1.17-2,1.77-8.1,7.53-14.34,17.02-18.03,27.46-4.82,13.61-5.49,29.12-2.09,47.38h-40.7c-.28,0-.55,0-.82.01-8.44.43-15.2,7.47-15.2,16.01v83.73c-111.4,34.29-192.02,134.45-192.02,252.69,0,60.38,21.03,116.08,56.52,160.68,50.5,63.63,130.38,104.72,220.23,104.72,66.23,0,127.03-22.31,174.64-59.53,1.52-1.19,3.03-2.4,4.52-3.63,32.62-26.58,58.7-60.27,75.67-98.58,14.11-31.84,21.9-66.89,21.9-103.66,0-85.31-41.98-161.22-107.21-209.77ZM523.63,198.58h.01c3.5-.11,7.25,1.96,10,5.54,2.74,3.56,3.79,7.71,2.8,11.1-.52,1.79-1.22,2.58-1.43,2.73-.35.21-2.01.35-3.69-.58-2.32-1.29-4.67-4.05-6.77-8.01-1.71-3.22-3.02-6.7-3.89-10.38,1.02-.25,2.01-.38,2.97-.4ZM707.81,624.12c-.05,1.78-.13,3.57-.24,5.37-.11,1.79-.26,3.59-.43,5.39-.34,3.6-.8,7.2-1.4,10.78-.19,1.19-.4,2.39-.63,3.57-2.03,10.71-5.2,21.2-9.67,30.92-.67,1.46-1.37,2.9-2.1,4.33-.73,1.42-1.49,2.83-2.28,4.22-1.18,2.07-2.43,4.1-3.75,6.08-.88,1.31-1.79,2.61-2.73,3.88-.94,1.26-1.92,2.5-2.92,3.72-2.51,3.03-5.22,5.9-8.13,8.56-5.07,4.63-10.75,8.65-17.09,11.91-2.09,1.06-4.29,1.98-6.55,2.71-.76.24-1.52.46-2.29.67-.38.1-.77.19-1.16.29-.77.18-1.55.34-2.33.48-.78.14-1.56.25-2.34.35-.78.09-1.57.16-2.35.21-.39.02-.78.04-1.17.05-1.95.06-3.89-.03-5.78-.28-.37-.06-.75-.11-1.12-.18-.75-.13-1.49-.28-2.22-.46s-1.45-.39-2.16-.63c-.7-.24-1.4-.5-2.08-.8-.34-.15-.68-.3-1.01-.46-.67-.33-1.32-.68-1.95-1.06-.32-.2-.63-.39-.94-.6-.71-.48-1.39-.99-2.03-1.53-1.27-1.07-2.41-2.26-3.4-3.54-.25-.32-.49-.64-.72-.98-1.62-2.31-2.82-4.9-3.64-7.64-.24-.78-.44-1.58-.61-2.38-.52-2.42-.77-4.93-.77-7.47,0-.84.02-1.69.08-2.54.05-.85.13-1.69.23-2.54l.18-1.26c.13-.84.29-1.68.47-2.51.27-1.25.6-2.48.97-3.69,1.47-4.7,3.55-9.19,5.92-13.59,1.09-2.03,2.25-4.04,3.43-6.04.2-.33.4-.67.6-1,.4-.67.8-1.33,1.2-1.99.4-.67.81-1.33,1.21-2,.41-.66.81-1.32,1.22-1.99.4-.66.8-1.33,1.21-1.99.4-.67.8-1.33,1.19-2,.4-.66.79-1.33,1.18-2,.36-.62.72-1.24,1.07-1.86.35-.62.7-1.24,1.04-1.86,1.11-2.04,2.17-4.1,3.17-6.19.33-.69.66-1.39.97-2.09.52-1.12,1.01-2.25,1.49-3.38.48-1.13.94-2.26,1.38-3.4.45-1.15.87-2.29,1.28-3.44.62-1.73,1.2-3.46,1.73-5.21.18-.58.36-1.16.53-1.75.34-1.16.67-2.34.97-3.51.62-2.35,1.16-4.71,1.63-7.08.47-2.37.88-4.74,1.21-7.13.08-.59.16-1.19.23-1.79.15-1.19.28-2.38.39-3.58.05-.6.1-1.19.15-1.79.09-1.2.17-2.39.22-3.59.03-.6.05-1.2.07-1.79.05-1.49.07-2.98.08-4.48.01-.59.01-1.19.01-1.79v-.9c0-.59,0-1.19,0-1.79.01-.89.02-1.79.03-2.69.01-.53.03-1.06.04-1.59.01-.36.02-.73.04-1.09.03-.9.08-1.79.14-2.68.08-1.14.18-2.28.31-3.41.05-.39.1-.79.16-1.18.11-.8.24-1.6.39-2.4,0-.06.02-.12.04-.19.16-.83.34-1.65.55-2.48.15-.6.32-1.2.5-1.8.09-.29.18-.58.28-.87.36-1.08.79-2.16,1.28-3.22.5-1.06,1.05-2.11,1.66-3.12.41-.68.84-1.34,1.3-1.98.44-.62.91-1.23,1.39-1.81.53-.64,1.08-1.25,1.65-1.84.44-.45.9-.89,1.37-1.31.95-.84,1.94-1.61,3-2.3.65-.43,1.33-.82,2.03-1.18.79-.41,1.59-.77,2.42-1.09.56-.21,1.12-.39,1.7-.56.86-.24,1.74-.43,2.64-.56,1.18-.17,2.35-.23,3.51-.2.87.02,1.73.09,2.59.22.28.04.57.09.85.14.26.05.52.1.78.16.46.1.91.21,1.36.34.22.07.44.13.66.2.45.14.89.3,1.32.46.22.08.44.17.65.26.43.17.86.36,1.28.56.41.2.83.41,1.23.63.82.44,1.61.92,2.36,1.44.38.26.76.53,1.12.8.55.42,1.07.85,1.58,1.3.34.3.67.61.99.92s.63.63.93.96c.31.32.6.65.89.99.74.86,1.43,1.76,2.08,2.69.22.32.43.64.65.96.5.76.97,1.54,1.42,2.33.59,1.05,1.15,2.12,1.67,3.21.52,1.09,1.01,2.19,1.47,3.31.5,1.22.97,2.45,1.42,3.68,1.67,4.57,3.09,9.51,4.23,14.72,1.03,4.69,1.83,9.59,2.4,14.66.13,1.12.24,2.25.34,3.39.1,1.14.19,2.29.27,3.44.2,2.88.32,5.79.36,8.73.01,1.18.02,2.36.01,3.55-.01,1.18-.03,2.37-.07,3.56Z"></path>
</svg>