<svg xmlns="http://www.w3.org/2000/svg" fill="currentColor" viewBox="1 1 18 19"><path fill-rule="evenodd" d="M4.663 12.883a7.037 7.037 0 1 1 11.071 0 15.177 15.177 0 0 1-5.535 1.039c-1.953 0-3.82-.368-5.536-1.039Zm5.918-7.923c.27.365.534.985.684 1.372.081.207.275.35.496.367.43.033 1.137.105 1.564.255.388.136.432.347.195.676-.265.369-.782.828-1.104 1.099a.579.579 0 0 0-.19.58c.101.408.247 1.084.244 1.54-.004.426-.188.557-.597.43-.433-.136-1.017-.484-1.37-.708a.58.58 0 0 0-.618-.003c-.332.208-.868.524-1.287.678-.482.177-.704.032-.698-.487.006-.452.15-1.064.252-1.445a.583.583 0 0 0-.183-.593c-.315-.27-.813-.72-1.08-1.088-.244-.338-.221-.58.196-.724.425-.147 1.11-.2 1.533-.22a.583.583 0 0 0 .513-.364c.155-.387.423-1.002.689-1.365.26-.355.499-.355.76 0Z" clip-rule="evenodd"></path><path d="M3.76 16.7c0-.892.732-2.52.732-2.52 1.746.87 3.677 1.082 5.706 1.082 2.03 0 3.96-.211 5.705-1.082 0 0 .732 1.628.732 2.52 0 2.246-5.387 2.398-6.437 2.398-1.044 0-6.438-.146-6.438-2.398Z"></path></svg>