<svg width="27" height="27" viewBox="0 0 27 27" fill="none" xmlns="http://www.w3.org/2000/svg">
<path fill-rule="evenodd" clip-rule="evenodd" d="M3.43311 6.80089C3.43311 4.89126 4.99014 3.33423 6.89977 3.33423H19.8998C20.6177 3.33423 21.1998 3.91626 21.1998 4.63423V7.66756H22.0664C22.7844 7.66756 23.3664 8.24959 23.3664 8.96756V12.0008H24.2331C24.9511 12.0008 25.5331 12.5829 25.5331 13.3008V17.6342C25.5331 18.3521 24.9511 18.9342 24.2331 18.9342H23.3664V21.9675C23.3664 22.6855 22.7844 23.2675 22.0664 23.2675H6.89977C4.99014 23.2675 3.43311 21.7105 3.43311 19.8008V6.80089ZM6.03311 6.80089C6.03311 6.3272 6.42608 5.93423 6.89977 5.93423H18.5998V7.66756H6.89977C6.66992 7.66756 6.44948 7.57625 6.28695 7.41372C6.12441 7.25119 6.03311 7.03075 6.03311 6.80089ZM22.0547 14.6008C22.0586 14.6009 22.0625 14.6009 22.0664 14.6009C22.0704 14.6009 22.0743 14.6009 22.0782 14.6008H22.9331V16.3342H19.8998C19.4261 16.3342 19.0331 15.9412 19.0331 15.4675C19.0331 15.2377 19.1244 15.0172 19.2869 14.8547C19.4495 14.6922 19.6699 14.6008 19.8998 14.6008H22.0547ZM20.7664 12.0008H19.8998C18.9804 12.0008 18.0986 12.3661 17.4485 13.0162C16.7983 13.6663 16.4331 14.5481 16.4331 15.4675C16.4331 17.3771 17.9901 18.9342 19.8998 18.9342H20.7664V20.6675H6.89977C6.42608 20.6675 6.03311 20.2745 6.03311 19.8008V10.1575C6.31385 10.23 6.60488 10.2676 6.89977 10.2676H20.7664V12.0008Z" fill="#010100"></path>
</svg>