<svg xmlns="http://www.w3.org/2000/svg" width="137" height="61" viewBox="0 0 136 61"><path style="stroke:none;fill-rule:nonzero;fill:#44be4c;fill-opacity:1" d="M59.195 27.168c-1.082.219-2.082.328-4.277.328-3.172 0-6.8-1.719-6.8-8v-.875c0-6.36 3.628-7.992 6.8-7.992 1.625 0 3.195.242 4.305.406.246.027.41.11.41.328v1.313c0 .164-.059.27-.301.27h-.078c-.922-.079-2.82-.243-4.309-.243-2.52 0-4.472 1.473-4.472 5.867v.875c0 4.34 1.953 5.867 4.472 5.867 1.461 0 3.305-.132 4.25-.218h.11c.27 0 .406.136.406.414v1.062c0 .41-.215.547-.516.598zm19.145.164h-1.516c-.238 0-.375-.164-.43-.328l-1.683-5.129h-6.66l-1.649 5.129a.473.473 0 0 1-.465.328h-1.515c-.242 0-.43-.164-.43-.352 0-.054 0-.113.028-.164l4.765-14.554c.43-1.36 1.649-1.688 2.625-1.688.95 0 2.164.297 2.602 1.664l4.765 14.578c.02.051.032.106.028.164-.028.188-.164.352-.465.352zM71.898 12.73c-.078-.246-.242-.41-.488-.41-.27 0-.433.164-.512.41l-2.304 7.23h5.61zm26.73 14.602h-1.41c-.241 0-.46-.242-.46-.516V11.31c0-.246.191-.493.46-.493h1.41c.243 0 .458.22.458.493v15.507c0 .27-.188.516-.457.516zm18.142 0h-1.594c-.41 0-.703-.164-.817-.406l-7.93-12.477c-.027-.058-.058-.082-.085-.082-.024 0-.024.024-.024.082v12.39c0 .25-.218.493-.465.493h-1.324c-.242 0-.457-.05-.457-.3V11.554c0-.41.324-.739.754-.739h1.41c.73 0 .836.141 1.055.52l7.883 12.39.054.087c.024 0 .024-.055.024-.079V11.31c0-.246.215-.493.465-.493h1.351c.274 0 .461.246.461.493V26.57c-.031.434-.351.762-.761.762zm12.296.191c-4.035 0-6.957-2.37-6.957-8.132v-.602c0-5.758 2.922-8.137 6.957-8.137 4.036 0 6.934 2.38 6.934 8.137v.602c0 5.73-2.898 8.132-6.934 8.132zm4.579-8.734c0-4.34-1.762-6.008-4.579-6.008-2.785 0-4.601 1.668-4.601 6.008v.602c0 4.336 1.758 6.004 4.601 6.004 2.79 0 4.579-1.66 4.579-6.004zm0 0"/><path style="stroke:none;fill-rule:nonzero;fill:#fff;fill-opacity:1" d="M43.46 24.738c-2.163-.652-8.097-1.523-13.405-1.523-6.528 0-16.086 2.262-16.086 16.758v4.203c0 14.25 9.37 16.761 15.601 16.761 4.602 0 10.883-.738 13.89-1.394.895-.191 1.032-.242 1.032-1.09V41.117c0-.277-.11-.535-.304-.73a.976.976 0 0 0-.727-.301H31.195c-.539 0-.976.406-.976.926v4.336c0 .52.437.933.976.933h2.953c.16 0 .293.13.293.293v3.852c0 .222-.164.414-.379.414-1.136.078-4.085.105-4.464.105-1.461 0-3.875-.191-3.875-6.66v-4.312c0-5.434 3.007-6.633 9.289-6.47 3.031.083 7.203.302 8.691.493.68.11.844-.14.844-.902v-7.258c-.059-.656-.086-.797-1.086-1.098zm31.122 5.27h-7.914a.818.818 0 0 0-.809.82v17.883c0 3.219-1.953 3.93-4.062 3.93-2.113 0-4.063-.684-4.063-3.93V30.828a.837.837 0 0 0-.812-.82h-7.91c-.43 0-.836.355-.836.82v17.883c0 10.504 7.336 12.121 13.648 12.121 6.281 0 13.649-1.586 13.649-12.121V30.828c-.024-.465-.434-.82-.891-.82zm60.223 0h-7.907a.818.818 0 0 0-.808.82v17.883c0 3.219-1.95 3.93-4.067 3.93-2.109 0-4.058-.684-4.058-3.93V30.828a.837.837 0 0 0-.813-.82h-7.91c-.43 0-.84.355-.84.82v17.883c0 10.504 7.34 12.121 13.649 12.121 6.285 0 13.648-1.586 13.648-12.121V30.828a.926.926 0 0 0-.894-.82zm-34.637 18.539c2.195-.984 4.66-3.547 4.66-7.95v-.816c0-7.722-5.062-10.18-13.242-10.18-2.79 0-8.86.27-10.234.493-2.196.379-2.848.926-2.848 3.46v26.048c0 .433.41.816.84.816h7.906a.837.837 0 0 0 .816-.816v-9.61h2.653l4.82 9.61c.219.41.379.816 1.086.816h8.473c.379 0 .73-.27.73-.738 0-.137-.023-.301-.105-.434zm-4.867-7.89c0 1.116-.79 2.156-2.793 2.156h-4.39v-5.16h4.39c2.055 0 2.793.765 2.793 2.156zm0 0"/><path style="stroke:none;fill-rule:nonzero;fill:#44be4c;fill-opacity:1" d="m88.66 18.457-2.355-1.195c-1.703-.985-2.461-1.614-2.461-2.594 0-1.445 1.023-2.023 3.543-2.023 1.008 0 2.332.058 3.93.164h.054c.266 0 .457-.164.457-.407v-.953c0-.164-.078-.355-.433-.441-.782-.11-2.543-.301-3.98-.301-3.708 0-5.767 1.39-5.767 3.934 0 1.91 1.274 3.027 3.196 4.148l2.465 1.285c2.004 1.168 2.71 1.801 2.71 2.89 0 1.696-1.195 2.536-3.664 2.536-1.023 0-2.675-.078-3.757-.156h-.086c-.27 0-.457.164-.457.406v.875c0 .27.078.379.484.46h.031c1.024.165 2.192.33 3.785.33 5.532 0 5.961-3.411 5.961-4.45-.027-1.774-1-3.004-3.656-4.508zM11.098 38.605a.53.53 0 0 1-.352-.109c-2.898-1.828-4.062-5.074-3.305-9.441.465-2.676 2.793-6.473 5.282-8.684 1.03-.902 1.953-1.637 2.789-2.207a6.194 6.194 0 0 1-.293-.633 2.97 2.97 0 0 1-.516.657c-.922.875-1.328 1.066-1.652 1.066h-.086c-.05.05-.242.215-.73.848l-.079.078c-1.816 2.187-3.52 4.261-4.496 6.304-1.406 2.953-1.137 5.926-.84 7.457.028.192 0 .407-.136.547a.662.662 0 0 1-.516.242.679.679 0 0 1-.488-.214C2.055 30.527 1.137 23.32 9.559 15.074l.05-.027c1.223-1.008 2.848-2.18 3.766-2.809-.023-.082-.023-.191-.023-.27-.516.352-1.168.79-1.98 1.36-4.927 3.906-7.774 8.027-8.454 12.203a.661.661 0 0 1-.645.574.708.708 0 0 1-.601-.355c-1.73-3.168.246-5.977 1.086-7.18.054-.078.137-.191.16-.242l.027-.027c3.2-4.067 7.828-6.828 9.453-7.457.301-.106.598-.215.868-.27v-.164c-2.684.926-7.176 4.145-9.668 6.906a.679.679 0 0 1-.489.215.68.68 0 0 1-.675-.648c-.082-2.457 2.058-5.055 3.195-6.09.703-.633 2.656-1.941 4.71-3.195-.866.433-1.76.902-2.46 1.308a.818.818 0 0 1-.324.086.682.682 0 0 1-.602-.355c-.105-.223-.105-.492.059-.684 1.437-2.074 4.3-3.902 6.418-4.644.187-.051.402-.106.62-.106.41 0 .868.106 1.329.356l.434-.059-.055-.055a1.14 1.14 0 0 1-.215-.87c.05-.247.215-.466.457-.52 1.031-.301 3.902-.735 7.121-.735 3.012 0 7.149.38 9.918 2.18a.687.687 0 0 1 .266.77.663.663 0 0 1-.645.492h-.113a9.324 9.324 0 0 0-1.89-.192 9.42 9.42 0 0 0-2.2.27c-.055 0-.105.027-.133.027-.082 0-.164 0-.215-.027-.328-.11-.652-.219-.953-.3.137.136.192.3.192.491a.693.693 0 0 1-.512.602c-1.711.433-3.656 1.23-4.824 1.906l.707.711c3.113-2.234 6.09-3.355 8.91-3.355 2.976 0 4.875 1.257 5.683 1.804 1.602 1.035 2.547 3.52 2.438 6.332-.027.356-.297.653-.676.653a.566.566 0 0 1-.351-.106c-3.387-2.023-7.45-2.293-10.614-2.293-.707 0-1.41.024-2.007.024h-.27a.57.57 0 0 1 .137.246c.918-.055 1.761-.106 2.52-.106 4.085 0 7.413.926 10.777 3 1.812 1.172 2.57 3.332 2.41 6.77-.028.355-.328.656-.653.656-.054 0-.105 0-.16-.027.133.3.242.656.297 1.011a.83.83 0 0 1-.191.653c-.137.136-.293.222-.485.222h-.109c-.816-.14-1.11-.164-1.867-.277-.246-.027-.38-.215-.438-.3-.593-.876-4.035-4.231-9.883-4.587h-.027l-.973.735h.32c2.118 0 6.071.355 8.587 2.648a.682.682 0 0 1 .164.742.667.667 0 0 1-.649.434h-.058a31.603 31.603 0 0 0-3.219-.164c-1.676 0-3.223.137-4.117.328a6.872 6.872 0 0 1-.73.164c-3.141.629-10.536 2.129-13.434 12.176-.106.351-.461.57-.95.57-.566 0-1.16-.27-1.246-.816-.378-2.266-.078-6.88 6.422-12.367l-.3-.547-.239.273c-.328.356-.707.711-1.086 1.117-2.87 2.926-6.828 6.91-4.77 13.953a.668.668 0 0 1-.105.602c-.273.078-.464.187-.68.187zm0 0"/><path style="stroke:none;fill-rule:nonzero;fill:#000;fill-opacity:1" d="M23.016 1.7c3.382 0 7.175.464 9.668 2.1.218.141.105.493-.137.493h-.05c-.68-.11-1.302-.188-1.977-.188-.68 0-1.387.079-2.278.27h-.055c-.027 0-.05 0-.078-.027-2.168-.762-4.007-1.04-5.824-1.04-.918 0-1.84.06-2.816.165-.192.027-.301.222-.219.382l.055.11c.058.086.136.164.246.164.648-.024 1.758-.137 2.949-.137 1.41 0 2.953.137 4.09.656.273.114.215.41-.055.493-1.789.46-3.87 1.308-5.09 2.043a.302.302 0 0 0-.12.175.27.27 0 0 0 .042.211l.918.93c.055.05.133.105.215.105a.408.408 0 0 0 .164-.054c3.547-2.563 6.469-3.356 8.773-3.356 2.817 0 4.688 1.203 5.473 1.72 1.598 1.038 2.356 3.522 2.246 5.952 0 .164-.133.242-.27.242-.058 0-.085 0-.136-.023-3.414-2.05-7.527-2.348-10.832-2.348-.977 0-1.871.028-2.68.028a.26.26 0 0 0-.25.175.262.262 0 0 0 .086.286l.242.191c.028.031.059.082.082.11l.028.113c.027.105.137.164.242.164h.027a38.624 38.624 0 0 1 2.602-.114c3.437 0 6.824.63 10.59 2.95 1.515.98 2.383 2.812 2.218 6.414 0 .136-.136.246-.242.246h-.058c-.89-.223-1.649-2.43-3.653-3.164-.027 0-.054-.032-.082-.032-.215 0-.351.301-.16.465 1.219 1.063 3.387 2.075 3.68 4.203.027.192-.078.41-.242.41h-.024c-.844-.132-1.144-.163-1.875-.273-.05 0-.105-.05-.129-.11-.465-.683-3.879-4.394-10.21-4.75-.06 0-.11-.027-.137-.027l-1.489 1.118c-.214.164-.109.468.164.468.239 0 .48-.027.754-.027 2.653 0 6.118.543 8.313 2.535.187.164.058.465-.192.465H35.5a33.405 33.405 0 0 0-3.25-.164c-1.73 0-3.305.14-4.2.355-2.327.575-11.206 1.395-14.46 12.614-.05.191-.297.297-.567.297-.378 0-.816-.192-.867-.489-.379-2.16-.078-6.633 6.364-12.039a.227.227 0 0 0 .054-.328c-.133-.246-.27-.52-.46-.844a.275.275 0 0 0-.247-.136.254.254 0 0 0-.187.078c-.133.14-.242.277-.38.414-2.76 3.004-8.343 7.234-5.929 15.445.055.195-.082.356-.246.356-.055 0-.078 0-.133-.028C8.04 36.29 7.2 32.984 7.88 29.082c.406-2.457 2.598-6.227 5.144-8.437a31.67 31.67 0 0 1 2.84-2.266.258.258 0 0 0 .086-.328c-.164-.301-.328-.656-.492-1.012-.05-.105-.137-.164-.238-.164-.086 0-.192.059-.219.137a2.367 2.367 0 0 1-.57.797c-.89.87-1.192.953-1.38.953h-.113c-.16 0-.324.082-1.023 1.011-1.84 2.239-3.601 4.34-4.633 6.47-1.3 2.726-1.273 5.624-.87 7.698a.278.278 0 0 1-.056.227.268.268 0 0 1-.21.102.299.299 0 0 1-.192-.086C3.11 31.07.758 24.195 9.801 15.324l.023-.027c1.223-1.035 2.848-2.188 3.793-2.871a.253.253 0 0 0 .11-.27 6.363 6.363 0 0 1-.11-1.035c-.43.297-1.219.848-2.57 1.746h-.027c-6.856 5.434-8.207 10.07-8.586 12.477a.267.267 0 0 1-.274.215.33.33 0 0 1-.242-.137c-1.734-3.192.543-5.977 1.25-7.016v-.027c3.219-4.094 7.766-6.738 9.262-7.317.379-.132.672-.218.922-.269a.278.278 0 0 0 .214-.277v-.461a.272.272 0 0 0-.273-.274c-.027 0-.082 0-.105.024-.06.027-.086.027-.137.058-2.817.953-7.422 4.313-9.86 7.02a.335.335 0 0 1-.187.078c-.137 0-.274-.113-.274-.246-.054-2.266 1.977-4.781 3.063-5.758 1.055-.96 5.227-3.605 7.96-5.078.079-.027.106-.113.138-.191.027-.137.054-.25.078-.387-.137.058-.242.11-.352.136-.781.25-4.086 1.833-6.039 2.95-.05.027-.082.027-.137.027-.187 0-.351-.219-.214-.406 1.324-1.942 4.085-3.738 6.226-4.48.164-.055.328-.083.492-.083.43 0 .84.164 1.188.332.031.024.086.024.11.024h.027l1.976-.274.027-.054c-1.437-.078-1.488-.735-1.437-1.035.027-.11.086-.165.191-.192.895-.082 3.739-.547 6.989-.547zm0-.821c-3.25 0-6.2.441-7.23.742-.407.106-.68.434-.759.848a1.606 1.606 0 0 0 0 .511c-.379-.132-.73-.214-1.082-.214-.273 0-.515.023-.758.109-2.167.734-5.148 2.648-6.64 4.805a1.178 1.178 0 0 0-.078 1.12c.105.192.242.325.406.434-.73.493-1.3.926-1.625 1.23-1.188 1.063-3.383 3.798-3.332 6.384 0 .468.297.847.734.988-.027.05-.086.078-.113.137-.023.027-.023.05-.05.05l-.165.247c-.894 1.257-2.949 4.203-1.11 7.617.192.355.544.574.946.574a.865.865 0 0 0 .465-.113c-.031.191-.031.355-.059.547-.214 3.988 1.625 6.632 2.766 7.863.219.215.484.355.785.355.328 0 .621-.14.836-.41a.994.994 0 0 0 .223-.437c.539 1.937 1.648 3.468 3.355 4.53a.965.965 0 0 0 .567.165c.328 0 .652-.164.867-.434.219-.273.27-.629.164-.957-.137-.492-.274-.98-.352-1.445a2.02 2.02 0 0 0 1.188.379c.68 0 1.195-.328 1.332-.871 2.84-9.797 10.047-11.274 13.133-11.899.3-.058.543-.113.758-.164.843-.222 2.355-.328 4.007-.328 1.059 0 2.168.051 3.172.137h.106c.465 0 .867-.277 1.03-.715a1.23 1.23 0 0 0 .052-.547c.543.465.894.875 1.058 1.098.192.27.43.433.707.46.754.11 1.024.137 1.867.274h.16c.298 0 .594-.137.786-.355.215-.274.324-.63.273-.985a4.557 4.557 0 0 0-.136-.597c.378-.164.648-.52.68-.957.187-3.602-.653-5.867-2.606-7.125-.051-.024-.078-.055-.133-.082.45-.133.758-.54.785-1.008.137-2.977-.867-5.543-2.598-6.688-.601-.386-1.925-1.257-3.878-1.668.058-.078.085-.164.113-.242a1.102 1.102 0 0 0-.465-1.23C30.301 1.293 26.047.91 23.016.879zM22.5 7.547l.648-.328c-.187.133-.378.27-.593.406zm0 0"/><path style="stroke:none;fill-rule:nonzero;fill:#fcee21;fill-opacity:1" d="M20.117 27.223c-.512 0-.918-.133-1.191-.407-.406-.41-.38-1.011-.352-1.449v-.273c-.027-.242-.027-.625 0-1.23 0-1.305 0-3.493-.133-6.852v-.242l.188-.137c.16-.113 1.543-1.04 2.41-1.04.352 0 .57.165.672.302l1.41 1.69c1.68 1.997 3.957 4.755 4.387 5.352.355.493.328.903.273 1.176-.16.598-.758.926-1.082 1.067-.086.023-1.953.84-3.82 1.332-1.219.492-2.113.71-2.762.71zm0 0"/><path style="stroke:none;fill-rule:nonzero;fill:#000;fill-opacity:1" d="M21.012 16.035c.164 0 .27.024.347.133.465.574 5.176 6.172 5.77 7.047.601.867-.137 1.418-.645 1.637-.515.214-2.195.898-3.793 1.34-1.218.46-2.03.648-2.574.648-1.433 0-1.082-1.2-1.11-1.746-.054-.762.083-3.192-.16-8.082 0-.024 1.403-.977 2.165-.977zm0-.82c-.918 0-2.25.844-2.63 1.09l-.378.246.027.46c.164 3.36.164 5.548.137 6.852v1.504c-.027.438-.055 1.172.46 1.75.349.356.84.543 1.466.543.699 0 1.625-.215 2.84-.68 1.925-.52 3.793-1.34 3.87-1.367.41-.164 1.114-.574 1.333-1.336.105-.355.105-.906-.328-1.53-.407-.571-2.305-2.864-4.414-5.38-.704-.847-1.27-1.523-1.407-1.687-.136-.192-.433-.465-.976-.465zm0 0"/><path style="stroke:none;fill-rule:nonzero;fill:#fcee21;fill-opacity:1" d="M15.863 22.8c-1.675 0-3.433-.874-4.574-2.292-1.086-1.336-1.488-2.95-1.137-4.559l.078-.328c.489-2.32 1.954-9.414 4.2-14.633l.16-.379.387.164c2.382 1.118 12.316 9.579 13.183 10.454 1.352 1.367 1.73 3.277.973 5.105-.809 1.969-2.621 3.223-4.68 3.223-1.246 0-2.492-.465-3.715-1.367-.675 2.925-2.46 4.613-4.875 4.613zm0 0"/><path style="stroke:none;fill-rule:nonzero;fill:#000;fill-opacity:1" d="M14.781 1.156c2.356 1.09 12.27 9.582 13.055 10.371 2.812 2.84.406 7.614-3.414 7.614-1.215 0-2.57-.485-3.95-1.688-.6 3.547-2.577 4.942-4.609 4.942-2.949 0-6.039-2.926-5.332-6.36.403-1.832 1.926-9.422 4.25-14.879zM14.375.063l-.324.761c-2.246 5.27-3.735 12.371-4.227 14.719l-.078.328c-.351 1.715.078 3.461 1.215 4.914 1.223 1.496 3.09 2.457 4.902 2.457 2.442 0 4.282-1.613 5.117-4.37 1.118.71 2.305 1.089 3.473 1.089 2.195 0 4.192-1.363 5.059-3.492.816-1.965.41-4.067-1.055-5.54-.89-.906-10.805-9.367-13.293-10.538zm0 0"/></svg>