<svg xmlns="http://www.w3.org/2000/svg" width="262" height="62" fill="none" viewBox="0 0 262 62"><path fill="#FF333A" d="M255.816.08H7.073A6.184 6.184 0 0 0 .89 6.262v49.474a6.184 6.184 0 0 0 6.184 6.184h248.743A6.184 6.184 0 0 0 262 55.737V6.263A6.184 6.184 0 0 0 255.816.08Z"/><path fill="#fff" fill-rule="evenodd" d="M247.459 16.2a3.61 3.61 0 0 0-1.482-1.308 4.304 4.304 0 0 0-1.876-.432c-1.071 0-2.022.34-2.854 1.019-.83.68-1.286 1.616-1.369 2.81 0 1.292.409 2.294 1.226 3.008.818.713 1.788 1.07 2.916 1.07.7 0 1.366-.151 1.999-.453a3.623 3.623 0 0 0 1.524-1.38c.385-.617.577-1.365.577-2.244-.056-.81-.276-1.507-.661-2.09Zm-10.978 15.403c-.513-.748-1.164-1.452-1.945-2.11a94.12 94.12 0 0 0-1.783-1.37c-1.023-.776-1.827-1.432-2.41-1.966-.586-.536-1.056-1.072-1.411-1.607-.385-.59-.579-1.215-.579-1.874 0-.837.286-1.555.855-2.152.571-.597 1.322-.896 2.258-.896 1.331 0 2.793.653 4.387 1.957v-5.931c-1.73-.975-3.502-1.462-5.315-1.462-1.772 0-3.338.474-4.697 1.42-1.36.948-2.308 2.28-2.843 3.996a11.96 11.96 0 0 0-.557 3.563c0 3.212 1.285 5.868 3.853 7.969.329.315.878.738 1.648 1.266.77.529 1.404.993 1.906 1.39.501.398.968.917 1.401 1.555.431.638.649 1.322.649 2.048-.083 1.002-.491 1.785-1.226 2.349-.734.563-1.624.843-2.668.843-1.648 0-3.098-.624-4.348-1.873v6.26c1.868.988 3.702 1.482 5.501 1.482 1.168 0 2.25-.207 3.245-.618a8.34 8.34 0 0 0 2.607-1.679 9.082 9.082 0 0 0 1.834-2.48c.824-1.633 1.235-3.282 1.235-4.942 0-.907-.136-1.802-.411-2.688a8.967 8.967 0 0 0-1.186-2.45Zm-23.432-7.609c.008.041.011.144.011.31 0 .905-.32 1.78-.959 2.625-.638.844-1.884 1.266-3.738 1.266-.261 0-.461-.007-.597-.02v-8.567a5.547 5.547 0 0 1 1.01-.082c1.11 0 2.102.278 2.976.833.872.557 1.308 1.59 1.308 3.1 0 .096-.003.171-.011.227a1.875 1.875 0 0 0-.011.205c0 .028.005.062.011.103Zm4.77 4.654c.674-.96 1.09-1.836 1.247-2.626.158-.79.237-1.609.237-2.46 0-1.826-.433-3.443-1.297-4.85a8.663 8.663 0 0 0-3.535-3.243c-1.49-.755-3.175-1.133-5.058-1.133h-7.911v31.63h6.592V31.14l5.604 14.826h6.594l-5.604-14.497c1.413-.92 2.458-1.86 3.131-2.821ZM185.61 45.966h12.855v-5.93h-6.263v-6.92h5.275v-6.26h-5.275v-6.59h6.263v-5.93H185.61v31.63Zm-8.969-31.63h-6.265v31.63h13.516v-5.93h-7.251v-25.7Zm-15.883 25.576c-.65.77-1.541 1.154-2.666 1.154a8.05 8.05 0 0 1-.641-.042v-8.567c.222-.027.385-.04.497-.04.74 0 1.402.206 1.988.617.583.412 1.03.955 1.337 1.627.311.673.464 1.366.464 2.08 0 1.346-.326 2.403-.979 3.17Zm-3.307-19.974c.99 0 1.755.082 2.299.247.542.164.954.534 1.236 1.112.281.576.422 1.44.422 2.594 0 1.4-.343 2.423-1.03 3.068-.688.645-1.45.968-2.286.968-.18 0-.392-.027-.641-.083v-7.907Zm8.603 11.912a6.939 6.939 0 0 0-2.338-1.699c.88-.508 1.583-1.098 2.11-1.77.531-.673.908-1.401 1.135-2.184.226-.782.34-1.579.34-2.388 0-1.03-.162-2.063-.484-3.1-.324-1.036-.698-1.843-1.124-2.42-.466-.7-.964-1.3-1.493-1.801a8.306 8.306 0 0 0-1.711-1.256c-.611-.336-1.163-.57-1.658-.7a5.505 5.505 0 0 0-1.401-.196h-8.241v31.63h8.241c1.758 0 3.286-.422 4.584-1.267 1.299-.843 2.287-1.938 2.967-3.284A9.27 9.27 0 0 0 168 37.173a8.66 8.66 0 0 0-.473-2.863 7.141 7.141 0 0 0-1.473-2.46Zm-29.438-17.514-2.637 19.44-2.967-19.44h-8.242l-2.966 31.63h6.592l1.319-22.075 3.956 22.075h4.945l3.626-22.075 1.648 22.075h6.593l-3.626-31.63h-8.241Zm-30.397 21.746 1.978-13.839 2.637 13.84h-4.615Zm-.988-21.745-7.254 31.63h6.264l1.319-5.273h6.263l.989 5.272h6.594l-7.583-31.63h-6.592Zm-18.2 14.167v5.93h4.285c-.096 1.305-.32 2.43-.67 3.376-.35.95-.824 1.665-1.421 2.154-.597.486-1.328.73-2.194.73-1.058-.081-1.882-.526-2.472-1.328a6.827 6.827 0 0 1-1.195-2.676 25.033 25.033 0 0 1-.444-3.275c-.089-1.2-.147-1.85-.174-1.946 0-.48.02-1.25.06-2.306.028-1.044.114-2.227.259-3.553.144-1.324.367-2.337.67-3.037.412-1.002.933-1.757 1.565-2.265.632-.508 1.298-.762 1.999-.762.604 0 1.16.169 1.668.505.509.336.918.816 1.226 1.44.31.626.465 1.316.465 2.07l5.933-2.306c-.797-1.977-1.628-3.51-2.493-4.602-.866-1.091-2.123-1.864-3.77-2.316-1.237-.344-2.384-.515-3.442-.515-2.664 0-4.797.868-6.396 2.604-1.6 1.737-2.724 3.649-3.37 5.735-.645 2.087-.968 3.652-.968 4.695a29.713 29.713 0 0 0-.164 3.068c0 2.801.401 5.454 1.205 7.96.804 2.505 2.063 4.551 3.78 6.136 1.718 1.586 3.867 2.378 6.45 2.378.466 0 .996-.034 1.586-.103 2.033-.287 3.64-1.09 4.82-2.408 1.183-1.32 1.975-2.585 2.38-3.8.405-1.215.643-2.11.712-2.688.095-.397.212-1.093.35-2.09.137-.995.206-2.15.206-3.47 0-1.166-.076-2.278-.227-3.335H87.031ZM74.106 14.336h-6.593l-5.274 14.497V14.337h-6.264v31.63h6.264V30.48l5.933 15.485h6.593l-6.593-16.474 5.934-15.156ZM51.59 31.603a10.729 10.729 0 0 0-1.947-2.11c-.165-.138-.759-.595-1.782-1.37-1.024-.776-1.827-1.432-2.41-1.966-.585-.536-1.055-1.072-1.412-1.607a3.373 3.373 0 0 1-.577-1.874c0-.837.285-1.555.855-2.152.57-.597 1.322-.896 2.256-.896 1.332 0 2.795.653 4.389 1.957v-5.931c-1.73-.975-3.503-1.462-5.316-1.462-1.772 0-3.338.474-4.698 1.42-1.36.948-2.307 2.28-2.843 3.996a11.971 11.971 0 0 0-.556 3.563c0 3.212 1.284 5.868 3.853 7.969.33.315.878.738 1.648 1.266.77.529 1.404.993 1.906 1.39.501.398.968.917 1.4 1.555.433.638.65 1.322.65 2.048-.082 1.002-.49 1.785-1.226 2.349-.735.563-1.625.843-2.668.843-1.648 0-3.098-.624-4.348-1.873v6.26c1.868.988 3.702 1.482 5.501 1.482 1.168 0 2.25-.207 3.245-.618a8.339 8.339 0 0 0 2.607-1.679 9.068 9.068 0 0 0 1.834-2.48c.824-1.633 1.236-3.282 1.236-4.942 0-.907-.137-1.802-.412-2.688a8.991 8.991 0 0 0-1.185-2.45Zm-28.717 4.48 1.978-13.84 2.637 13.84h-4.615Zm-.99-21.746-7.251 31.63h6.263l1.318-5.273h6.264l.988 5.272h6.594l-7.582-31.63h-6.593Z" clip-rule="evenodd"/></svg>